<svg xmlns="http://www.w3.org/2000/svg" width="17" height="18" viewBox="0 0 17 18" fill="none">
<path opacity="0.2" d="M12.2188 5.8125V14.3125C12.2188 14.4534 12.1628 14.5885 12.0632 14.6882C11.9635 14.7878 11.8284 14.8438 11.6875 14.8438H3.1875C3.0466 14.8438 2.91148 14.7878 2.81185 14.6882C2.71222 14.5885 2.65625 14.4534 2.65625 14.3125V5.8125C2.65625 5.6716 2.71222 5.53648 2.81185 5.43685C2.91148 5.33722 3.0466 5.28125 3.1875 5.28125H11.6875C11.8284 5.28125 11.9635 5.33722 12.0632 5.43685C12.1628 5.53648 12.2188 5.6716 12.2188 5.8125Z" fill="black"></path>
<path d="M14.875 7.40625C14.875 7.54715 14.819 7.68227 14.7194 7.7819C14.6198 7.88153 14.4846 7.9375 14.3438 7.9375C14.2029 7.9375 14.0677 7.88153 13.9681 7.7819C13.8685 7.68227 13.8125 7.54715 13.8125 7.40625V4.43922L9.40777 8.84461C9.30809 8.94429 9.17289 9.0003 9.03191 9.0003C8.89094 9.0003 8.75574 8.94429 8.65605 8.84461C8.55637 8.74493 8.50037 8.60972 8.50037 8.46875C8.50037 8.32778 8.55637 8.19257 8.65605 8.09289L13.0608 3.6875H10.0938C9.95285 3.6875 9.81773 3.63153 9.7181 3.5319C9.61847 3.43227 9.5625 3.29715 9.5625 3.15625C9.5625 3.01535 9.61847 2.88023 9.7181 2.7806C9.81773 2.68097 9.95285 2.625 10.0938 2.625H14.3438C14.4846 2.625 14.6198 2.68097 14.7194 2.7806C14.819 2.88023 14.875 3.01535 14.875 3.15625V7.40625ZM12.2188 9C12.0779 9 11.9427 9.05597 11.8431 9.1556C11.7435 9.25523 11.6875 9.39035 11.6875 9.53125V14.3125H3.1875V5.8125H7.96875C8.10965 5.8125 8.24477 5.75653 8.3444 5.6569C8.44403 5.55727 8.5 5.42215 8.5 5.28125C8.5 5.14035 8.44403 5.00523 8.3444 4.9056C8.24477 4.80597 8.10965 4.75 7.96875 4.75H3.1875C2.90571 4.75 2.63546 4.86194 2.4362 5.0612C2.23694 5.26046 2.125 5.53071 2.125 5.8125V14.3125C2.125 14.5943 2.23694 14.8645 2.4362 15.0638C2.63546 15.2631 2.90571 15.375 3.1875 15.375H11.6875C11.9693 15.375 12.2395 15.2631 12.4388 15.0638C12.6381 14.8645 12.75 14.5943 12.75 14.3125V9.53125C12.75 9.39035 12.694 9.25523 12.5944 9.1556C12.4948 9.05597 12.3596 9 12.2188 9Z" fill="black"></path>
</svg>